<?xml version="1.0" encoding="UTF-8"?>
<svg width="28px" height="17px" viewBox="0 0 28 17" version="1.1" xmlns="http://www.w3.org/2000/svg" xmlns:xlink="http://www.w3.org/1999/xlink">
    <title></title>
    <g id="控件" stroke="none" stroke-width="1" fill="none" fill-rule="evenodd">
        <g id="头部" transform="translate(-20.000000, -19.000000)" fill="#FE6900" fill-rule="nonzero">
            <g id="编组" transform="translate(20.000000, 19.000000)">
                <polygon id="路径" points="18 7 9 7 9 9 18 9"></polygon>
                <path d="M23.2666395,0 L17,0 L18.5124888,2.05230123 L23.0809613,3.39478849 C23.927446,3.65167842 24.4666477,4.40463256 24.4607332,5.21383801 C24.4607332,5.21556361 24.461002,5.21724586 24.461002,5.21891944 L24.461002,11.7811239 C24.461002,11.7827715 24.4607332,11.7845058 24.4607332,11.7861533 C24.4666477,12.5953674 23.927446,13.3483042 23.0809613,13.6052375 L18.5124888,14.9477421 L17,17 L23.2666395,17 C25.8807413,17 28,14.9675129 28,12.4603539 L28,4.53960275 C28,2.03248711 25.8807413,0 23.2666395,0 Z" id="路径"></path>
                <path d="M4.73338113,0 L11,0 L9.48758849,2.05230123 L4.91903396,3.39478849 C4.07252442,3.65167842 3.53338113,4.40463256 3.53923291,5.21383801 C3.53923291,5.21556361 3.5389551,5.21724586 3.5389551,5.21891944 L3.5389551,11.7811239 C3.5389551,11.7827715 3.53923291,11.7845058 3.53923291,11.7861533 C3.53338113,12.5953674 4.07252442,13.3483042 4.91903396,13.6052375 L9.48758849,14.9477421 L11,17 L4.73338113,17 C2.11919527,17 0,14.9675129 0,12.4603539 L0,4.53960275 C0,2.03248711 2.11919527,0 4.73338113,0 Z" id="路径"></path>
            </g>
        </g>
    </g>
</svg>