<svg width="94" height="77" xmlns="http://www.w3.org/2000/svg" xmlns:xlink="http://www.w3.org/1999/xlink"><defs><path d="M41.778 21c0-11.594-9.357-21-20.89-21C9.357 0 0 9.406 0 21s9.356 21 20.889 21c11.532 0 20.889-9.406 20.889-21z" id="a"/><path d="M41.778 21c0-11.594-9.357-21-20.89-21C9.357 0 0 9.406 0 21s9.356 21 20.889 21c11.532 0 20.889-9.406 20.889-21z" id="c"/><path d="M41.778 21c0-11.594-9.357-21-20.89-21C9.357 0 0 9.406 0 21s9.356 21 20.889 21c11.532 0 20.889-9.406 20.889-21z" id="e"/><path d="M70.5 35.438C70.5 15.872 54.711 0 35.25 0S0 15.873 0 35.438c0 19.564 15.789 35.437 35.25 35.437S70.5 55.002 70.5 35.437z" id="g"/><path d="M70.5 35.438C70.5 15.872 54.711 0 35.25 0S0 15.873 0 35.438c0 19.564 15.789 35.437 35.25 35.437S70.5 55.002 70.5 35.437z" id="i"/><path d="M70.5 35.438C70.5 15.872 54.711 0 35.25 0S0 15.873 0 35.438c0 19.564 15.789 35.437 35.25 35.437S70.5 55.002 70.5 35.437z" id="k"/></defs><g fill="none" fill-rule="evenodd"><g><mask id="b" fill="#fff"><use xlink:href="#a"/></mask><path d="M41.778 21c0-11.594-9.357-21-20.89-21C9.357 0 0 9.406 0 21s9.356 21 20.889 21c11.532 0 20.889-9.406 20.889-21z" fill="#D7DBEC" mask="url(#b)"/></g><g><mask id="d" fill="#fff"><use xlink:href="#c"/></mask><path d="M27.852 15.75c0-3.867-3.116-7-6.963-7s-6.963 3.133-6.963 7 3.116 7 6.963 7 6.963-3.133 6.963-7z" fill="#131523" mask="url(#d)"/></g><g><mask id="f" fill="#fff"><use xlink:href="#e"/></mask><path d="M35.687 36.567C33.36 30.524 27.612 26.25 20.891 26.25c-6.722 0-12.47 4.275-14.796 10.318 3.747 3.89 8.99 6.307 14.791 6.307 5.807 0 11.053-2.418 14.801-6.308z" fill="#131523" mask="url(#f)"/></g><g><g transform="translate(23.5 6.125)"><mask id="h" fill="#fff"><use xlink:href="#g"/></mask><path d="M70.5 35.438C70.5 15.872 54.711 0 35.25 0S0 15.873 0 35.438c0 19.564 15.789 35.437 35.25 35.437S70.5 55.002 70.5 35.437z" fill="#336DFF" mask="url(#h)"/></g><g transform="translate(23.5 6.125)"><mask id="j" fill="#fff"><use xlink:href="#i"/></mask><path d="M47 26.688c0-6.52-5.266-11.813-11.75-11.813S23.5 20.169 23.5 26.688c0 6.518 5.266 11.812 11.75 11.812S47 33.206 47 26.687z" fill="#B6CBFF" mask="url(#j)"/></g><g transform="translate(23.5 6.125)"><mask id="l" fill="#fff"><use xlink:href="#k"/></mask><path d="M60.67 62.863C56.872 51.723 46.73 43.75 34.813 43.75c-11.432 0-21.232 7.338-25.361 17.772 6.52 7.365 15.86 11.978 26.232 11.978 9.727 0 18.547-4.057 24.984-10.637z" fill="#B6CBFF" mask="url(#l)"/></g></g></g></svg>