<svg width="16" height="18" xmlns="http://www.w3.org/2000/svg"><g fill="#FE6900" fill-rule="nonzero"><path d="M14.557.794A.794.794 0 0 0 13.763 0h-.605c-.303 0-.593.166-.71.446a1.21 1.21 0 0 1-2.234 0C10.096.166 9.806 0 9.503 0H9.1c-.303 0-.594.167-.711.446a1.21 1.21 0 0 1-2.234 0C6.04.166 5.748 0 5.446 0H5.06c-.303 0-.594.167-.711.446a1.21 1.21 0 0 1-2.234 0C1.998.166 1.707 0 1.404 0h-.61A.794.794 0 0 0 0 .794v3.567h14.557V.794zm1.006 14.466h-1.37a.436.436 0 0 1-.401-.266l-.321-.757a.426.426 0 0 1 .1-.485c.486-.43.742-1.11.553-1.842a1.8 1.8 0 0 0-1.271-1.274 1.823 1.823 0 0 0-2.305 1.757c0 .544.24 1.03.62 1.362.135.12.169.318.098.484l-.32.755a.436.436 0 0 1-.402.266H9.16a.438.438 0 0 0-.438.437v1.328c0 .242.196.438.438.438h6.402a.438.438 0 0 0 .438-.438v-1.328a.438.438 0 0 0-.437-.437z"/><path d="M10.064 14.537c.196 0 .364-.16.364-.364a.326.326 0 0 0-.066-.204.313.313 0 0 0-.043-.05 2.559 2.559 0 0 1-.502-1.522 2.555 2.555 0 0 1 3.217-2.46c.342.087.655.248.924.466.248.197.604.043.604-.27V5.09H.006v11.645c0 .4.327.728.728.728H7.56c.24 0 .437-.197.437-.437V15.71a1.17 1.17 0 0 1 1.164-1.172h.903zm-3.5-5.517c0 .24-.197.437-.437.437H2.633a.438.438 0 0 1-.437-.437v-.575a.44.44 0 0 1 .437-.444h3.493a.44.44 0 0 1 .437.444v.575z"/></g></svg>