<svg width="14" height="14" xmlns="http://www.w3.org/2000/svg"><path d="M13.456 1.609h-2.488v-.89A.7.7 0 0 0 10.253 0h-6.54a.7.7 0 0 0-.715.719v.855H.51C.239 1.61 0 1.85 0 2.123c0 .273.239.513.511.513h12.978c.272 0 .511-.24.511-.513-.034-.274-.272-.514-.544-.514zM11.48 3.732H2.486c-.136 0-.272.033-.34.136a.44.44 0 0 0-.137.342v8.283c0 .823.682 1.507 1.499 1.507h6.983c.817 0 1.498-.684 1.498-1.506V4.211c0-.275-.238-.48-.51-.48h.001zm-5.792 7.974a.525.525 0 0 1-.511.513.525.525 0 0 1-.511-.513V6.298c0-.274.239-.514.51-.514.273 0 .512.24.512.514v5.408zm3.61 0a.525.525 0 0 1-.51.513.525.525 0 0 1-.512-.513V6.298c0-.274.24-.514.511-.514.273 0 .511.24.511.514v5.408z" fill="#FE6900" fill-rule="nonzero"/></svg>