<svg width="136" height="32" xmlns="http://www.w3.org/2000/svg"><g fill="#FE6900" fill-rule="nonzero"><path d="M18 7H9v2h9z"/><path d="M23.267 0H17l1.512 2.052 4.569 1.343c.846.257 1.386 1.01 1.38 1.819v6.572c.006.81-.534 1.562-1.38 1.82l-4.569 1.342L17 17h6.267C25.88 17 28 14.968 28 12.46V4.54C28 2.032 25.88 0 23.267 0zM4.733 0H11L9.488 2.052 4.919 3.395c-.846.257-1.386 1.01-1.38 1.819v6.572c-.006.81.534 1.562 1.38 1.82l4.569 1.342L11 17H4.733C2.12 17 0 14.968 0 12.46V4.54C0 2.032 2.12 0 4.733 0zM101.832 12.275c0 1.479-1.27 2.681-2.832 2.681-1.562 0-2.833-1.202-2.833-2.68V5.73c0-1.478 1.27-2.68 2.833-2.68 1.562 0 2.832 1.202 2.832 2.68v.08H104v-.08C104 3.122 101.757 1 99 1s-5 2.122-5 4.731v6.538C94 14.878 96.243 17 99 17c2.753 0 4.995-2.12 5-4.725v-.086h-2.168v.086zM112 5c-2.139 0-3.896 1.737-4 3.956v4.087c.104 2.219 1.861 3.957 4 3.957 2.139 0 3.896-1.74 4-3.961V8.952C115.896 6.736 114.139 5 112 5zm1.978 7.805c-.02 1.164-.888 2.076-1.978 2.076-1.09 0-1.958-.911-1.978-2.074V9.195c0-1.145.887-2.076 1.978-2.076 1.09 0 1.978.931 1.978 2.076v3.61zM107 0h-2v16h2zM50 5h-2v11h2zM46 0h-2v16h2zM38.782 0h-2.564l-4.212 15.98L32 16h2.08l1.12-4.245 4.604.014 1.112 4.219.003.012H43L38.786.012 38.782 0zm.47 9.673h-3.503L37.5 3.029l1.751 6.644zM123.98 13.027c0 1.146-.89 2.078-1.984 2.078-1.093 0-1.984-.932-1.984-2.078V5H118v8.37c0 2.002 1.553 3.63 3.463 3.63.351 0 .698-.055 1.032-.164a2.77 2.77 0 0 0 .554-.241c.308-.168.59-.38.835-.632l.086-.089v.862H126V5h-2.02v8.027zM50 1h-2v2h2zM56.53 5.217c-.912 0-1.774.361-2.427 1.017l-.087.087V1H52v15.741h2.016v-.845l.087.087A3.405 3.405 0 0 0 56.53 17c1.913 0 3.47-1.598 3.47-3.561v-4.66c0-1.964-1.557-3.562-3.47-3.562zm1.48 3.94v3.904c0 1.127-.894 2.044-1.993 2.044-1.099 0-1.993-.917-1.993-2.044V9.156c0-1.127.894-2.044 1.993-2.044 1.099 0 1.993.917 1.993 2.044zM75.53 5.217c-.912 0-1.774.361-2.427 1.017l-.086.087V1H71v15.741h2.017v-.845l.086.087A3.405 3.405 0 0 0 75.53 17c1.913 0 3.47-1.598 3.47-3.561v-4.66c0-1.964-1.557-3.562-3.47-3.562zm1.48 3.94v3.904c0 1.127-.894 2.044-1.993 2.044-1.099 0-1.992-.917-1.992-2.044V9.157c0-1.128.894-2.045 1.992-2.045 1.098 0 1.993.917 1.993 2.045zM133.984 1v5.321l-.087-.087a3.405 3.405 0 0 0-2.426-1.017c-1.913 0-3.47 1.598-3.47 3.561v4.663l-.001.012c.002 1.956 1.558 3.547 3.47 3.547.912 0 1.773-.361 2.427-1.017l.087-.087v.845H136V1h-2.016zm-.009 8.156v3.904c0 1.128-.894 2.045-1.991 2.045-1.1 0-1.993-.917-1.993-2.045V9.156c0-1.127.894-2.044 1.993-2.044 1.097 0 1.991.917 1.991 2.044zM70 8.977a3.96 3.96 0 0 0-.044-.41l-.011-.058a4.18 4.18 0 0 0-.744-1.755A4.28 4.28 0 0 0 65.722 5c-1.014 0-2 .343-2.774.967a4.19 4.19 0 0 0-1.49 2.46l-.004.02h2.129l.002-.013c.197-.971 1.079-1.676 2.098-1.676.555 0 1.082.207 1.484.582.401.375.634.877.656 1.412l.003.985h-3.085c-2.063 0-3.741 1.626-3.741 3.626 0 1.683 1.192 3.098 2.8 3.504l.055.014a3.89 3.89 0 0 0 .467.083c.018.002.036.005.055.006.177.02.366.03.564.03.517 0 .982-.071 1.306-.183a3.756 3.756 0 0 0 1.485-.865l.093-.089v.861H70V8.977zm-4.854 2.358h2.65v1.482c-.006 1.126-.835 2.093-1.972 2.301-.17.037-.328.054-.484.054-.379 0-.748-.1-1.1-.299a1.903 1.903 0 0 1-.614-.496l-.022-.028a1.82 1.82 0 0 1-.4-1.132c0-1.038.87-1.882 1.942-1.882zM89 8.977a4.028 4.028 0 0 0-.044-.41l-.011-.058a4.172 4.172 0 0 0-.744-1.755A4.28 4.28 0 0 0 84.722 5c-1.014 0-2 .343-2.774.967a4.19 4.19 0 0 0-1.49 2.46l-.004.02h2.129l.002-.013c.197-.971 1.079-1.676 2.098-1.676.555 0 1.082.207 1.484.582.401.375.634.877.657 1.412l.002.985h-3.085c-2.063 0-3.741 1.626-3.741 3.626 0 1.683 1.192 3.098 2.8 3.504l.055.014a3.87 3.87 0 0 0 .467.083c.018.002.036.005.055.006.177.02.366.03.564.03.517 0 .981-.071 1.306-.183a3.762 3.762 0 0 0 1.486-.865l.092-.089v.861H89V8.977zm-4.854 2.358h2.65v1.482c-.006 1.126-.835 2.093-1.972 2.301-.17.037-.328.054-.484.054-.379 0-.748-.1-1.1-.3a1.894 1.894 0 0 1-.614-.495l-.022-.028a1.82 1.82 0 0 1-.4-1.132c0-1.038.87-1.882 1.942-1.882zM1.944 27.88c.018.465.072 1.33 1.579 1.33 1.36 0 1.533-.865 1.533-1.2 0-.752-.59-.901-1.506-1.134-.998-.25-1.443-.362-1.779-.595-.535-.371-.68-.873-.68-1.32C1.09 23.595 2.352 23 3.586 23c.436 0 1.316.074 1.842.66.363.409.381.865.4 1.143h-.944c-.046-.836-.735-1.022-1.38-1.022-.907 0-1.451.418-1.451 1.087 0 .595.38.8 1.18.995 1.56.41 1.733.446 2.114.707.608.409.653 1.06.653 1.338C6 29.098 5.093 30 3.414 30c-.5 0-1.516-.084-2.033-.762C1.01 28.745 1 28.206 1 27.88h.944zM12.07 24.931c-.035-.235-.148-1.177-1.357-1.177-1.513 0-1.783 1.677-1.783 2.807 0 1.282.34 2.666 1.774 2.666.383 0 .748-.103 1.018-.405.226-.263.278-.556.304-.716h.957c-.13 1.338-1.27 1.894-2.348 1.894C8.426 30 8 27.89 8 26.57 8 25.14 8.513 23 10.748 23c.887 0 2.139.386 2.252 1.931h-.93zM18.07 24.931c-.035-.235-.148-1.177-1.357-1.177-1.513 0-1.783 1.677-1.783 2.807 0 1.282.34 2.666 1.774 2.666.383 0 .748-.103 1.018-.405.226-.263.278-.556.304-.716h.957c-.13 1.338-1.27 1.894-2.348 1.894C14.426 30 14 27.89 14 26.57c0-1.431.513-3.57 2.748-3.57.887 0 2.139.386 2.252 1.931h-.93zM24.07 24.931c-.035-.235-.148-1.177-1.357-1.177-1.513 0-1.783 1.677-1.783 2.807 0 1.282.34 2.666 1.774 2.666.383 0 .748-.103 1.018-.405.226-.263.278-.556.304-.716h.957c-.13 1.338-1.27 1.894-2.348 1.894C20.426 30 20 27.89 20 26.57c0-1.431.513-3.57 2.748-3.57.887 0 2.139.386 2.252 1.931h-.93zM29.845 23.896c.682-.748 1.582-.896 2.191-.896C33.855 23 35 24.182 35 26.444 35 28.217 34.3 30 31.964 30 29.727 30 29 28.384 29 26.555c0-.757.127-1.874.845-2.66zm.691 4.71c.373.47.937.609 1.455.609.536 0 1.073-.148 1.455-.61.536-.664.59-1.717.59-2.17 0-1.514-.49-2.66-1.99-2.66-1.664 0-2.091 1.358-2.091 2.725 0 .73.127 1.533.581 2.106zM37.031 25.896c0-.219-.01-.338-.031-.816h.992l.02.826c.491-.786 1.358-.906 1.786-.906 1.127 0 2.202.737 2.202 2.589 0 1.862-1.138 2.679-2.39 2.679-.762 0-1.326-.31-1.608-.747V32h-.97v-6.104zm2.411 3.684c.251 0 .773-.05 1.107-.488.376-.487.428-1.204.428-1.563 0-.896-.282-1.832-1.44-1.832-1.566 0-1.566 1.584-1.566 2.031 0 .608.094 1.853 1.472 1.853zM43.819 27.651c-.018.981.36 1.707 1.267 1.707.537 0 .968-.301 1.039-.98h.827c-.026.235-.062.622-.379.99-.193.236-.633.632-1.522.632C43.66 30 43 29.076 43 27.576c0-.935.176-1.708.871-2.227.423-.32.951-.349 1.206-.349 1.98 0 1.936 1.877 1.919 2.651h-3.177zm2.332-.623c.009-.452-.07-1.396-1.091-1.396-.537 0-1.189.35-1.206 1.396h2.297zM48.053 26.055c0-.336-.021-.681-.053-1.007h1.01l.022.957c.191-.69.83-.917 1.277-.976.297-.04.52-.03.691-.02v.907a.907.907 0 0 0-.191-.039c-.075-.01-.17-.01-.288-.01-1.18 0-1.457.651-1.457 1.5V30h-1.01v-3.946zM55.202 29.85a2.536 2.536 0 0 1-.085-.703c-.422.778-1.06.853-1.455.853-1.08 0-1.662-.61-1.662-1.388 0-.376.131-.976.826-1.38.507-.28 1.258-.309 1.634-.309.225 0 .366.01.639.028 0-.581 0-.835-.17-1.041-.178-.234-.563-.31-.816-.31-.892 0-.94.61-.949.798h-.882c.028-.244.056-.572.328-.891.357-.394 1.024-.507 1.521-.507.686 0 1.418.216 1.672.694.15.282.16.507.16.723l-.038 2.25c0 .076.01.705.075 1.183h-.798zm-.61-2.317c-.357 0-1.7 0-1.7.957 0 .3.188.816.976.816.451 0 .789-.178 1.005-.507.197-.319.207-.581.226-1.238a3.878 3.878 0 0 0-.507-.028zM56 25.254h.908v-.975l.95-.279v1.254H59v.64h-1.143v2.796c0 .232 0 .622.684.622.194 0 .377-.027.459-.046v.678c-.173.028-.45.056-.796.056-.877 0-1.296-.232-1.296-.994v-3.111H56v-.641zM60 23h1v1.001h-1V23zm.088 2.12h.832V30h-.832v-4.88zM63.009 25.664 63 25.098h.858l.01.79c.1-.204.429-.888 1.47-.888.41 0 1.662.166 1.662 1.67V30h-.877v-3.115c0-.322-.036-.616-.246-.84a1.135 1.135 0 0 0-.813-.332c-.621 0-1.197.479-1.197 1.465V30h-.858v-4.336zM69.332 30.403c.042.552.296.966 1.237.966 1.384 0 1.406-.937 1.406-2.278-.423.819-1.427.839-1.744.839-.487 0-1.184-.099-1.628-.612-.455-.503-.603-1.163-.603-1.824C68 25.818 69.057 25 70.357 25c1.068 0 1.459.493 1.67.75l.011-.681H73l-.021.897-.01 3.096c0 1.193-.043 1.676-.254 2.05-.444.79-1.48.888-2.21.888-2.124 0-2.188-.927-2.23-1.597h1.057zm2.315-1.657c.211-.256.36-.522.36-1.42 0-.62-.149-.975-.413-1.232-.264-.266-.687-.434-1.142-.434-1.257 0-1.426 1.184-1.426 1.815 0 .759.243 1.764 1.458 1.764.582 0 .92-.197 1.163-.493zM77.944 27.88c.018.465.072 1.33 1.579 1.33 1.36 0 1.533-.865 1.533-1.2 0-.752-.59-.901-1.506-1.134-.998-.25-1.443-.362-1.779-.595-.535-.371-.68-.873-.68-1.32 0-1.366 1.261-1.961 2.495-1.961.436 0 1.316.074 1.842.66.363.409.381.865.4 1.143h-.944c-.045-.836-.735-1.022-1.38-1.022-.907 0-1.451.418-1.451 1.087 0 .595.38.8 1.18.995 1.56.41 1.733.446 2.114.707.608.409.653 1.06.653 1.338 0 1.19-.907 2.092-2.586 2.092-.5 0-1.516-.084-2.033-.762-.372-.493-.381-1.032-.381-1.357h.944zM86.202 29.85a2.536 2.536 0 0 1-.084-.703c-.423.778-1.062.853-1.456.853-1.08 0-1.662-.61-1.662-1.388 0-.376.131-.976.826-1.38.507-.28 1.259-.309 1.634-.309.226 0 .366.01.639.028 0-.581 0-.835-.17-1.041-.177-.234-.563-.31-.816-.31-.892 0-.94.61-.949.798h-.882c.028-.244.056-.572.328-.891.357-.394 1.024-.507 1.522-.507.685 0 1.417.216 1.67.694.151.282.16.507.16.723l-.037 2.25c0 .076.01.705.075 1.183h-.798zm-.61-2.317c-.357 0-1.7 0-1.7.957 0 .3.188.816.977.816.45 0 .788-.178 1.005-.507.197-.319.206-.581.225-1.238a3.879 3.879 0 0 0-.507-.028zM89.869 25v3.185c0 .484.1 1.095.968 1.095.426 0 .824-.158 1.068-.552.19-.296.19-.68.19-.927V25h.878v4.024c0 .098.018.65.027.927h-.887l-.018-.848c-.163.345-.47.897-1.448.897C89.525 30 89 29.3 89 28.324V25h.869zM97.98 23h.978v6.138c0 .106.02.517.042.766h-.977l-.02-.766c-.085.134-.198.335-.469.508-.426.268-.935.354-1.29.354-.696 0-2.244-.335-2.244-2.442 0-1.829 1.133-2.624 2.36-2.624 1.122 0 1.496.613 1.62.814V23zm-.363 3.093c-.208-.249-.593-.488-1.143-.488-1.435 0-1.435 1.599-1.435 1.925 0 .852.24 1.838 1.435 1.838 1.538 0 1.538-1.56 1.538-1.934 0-.7-.176-1.082-.395-1.34zM100 23h1v1.001h-1V23zm.089 2.12h.832V30h-.832v-4.88zM106 23h2.466c.354 0 1.08 0 1.588.33.516.33.764.863.764 1.425 0 .494-.182.93-.487 1.241-.297.3-.603.397-.813.456.66.174.956.475 1.052 1.347.095.824.162 1.425.43 2.201h-1.023c-.154-.466-.249-1.319-.316-1.852-.115-1.018-.354-1.309-1.51-1.309h-1.205V30H106v-7zm.927 3.015h1.51c.106 0 .65 0 .908-.155.135-.077.469-.33.469-.911 0-1.135-.994-1.135-1.377-1.135h-1.51v2.201zM112.82 27.651c-.02.981.36 1.707 1.266 1.707.537 0 .968-.301 1.039-.98h.827c-.026.235-.062.622-.378.99-.194.236-.634.632-1.523.632-1.39 0-2.051-.924-2.051-2.424 0-.935.176-1.708.872-2.227.422-.32.95-.349 1.206-.349 1.98 0 1.936 1.877 1.918 2.651h-3.177zm2.331-.623c.009-.452-.07-1.396-1.09-1.396-.538 0-1.19.35-1.207 1.396h2.297zM118.332 30.403c.042.552.296.966 1.237.966 1.384 0 1.406-.937 1.406-2.278-.423.819-1.427.839-1.744.839-.487 0-1.184-.099-1.628-.612-.455-.503-.603-1.163-.603-1.824 0-1.676 1.058-2.494 2.357-2.494 1.068 0 1.459.493 1.67.75l.011-.681H122l-.022.897-.01 3.096c0 1.193-.043 1.676-.254 2.05-.443.79-1.48.888-2.21.888-2.123 0-2.186-.927-2.228-1.597h1.056zm2.315-1.657c.211-.256.359-.522.359-1.42 0-.62-.148-.975-.412-1.232-.264-.266-.687-.434-1.142-.434-1.258 0-1.426 1.184-1.426 1.815 0 .759.243 1.764 1.458 1.764.582 0 .92-.197 1.163-.493zM123 23h1v1.001h-1V23zm.089 2.12h.832V30h-.832v-4.88zM127.545 25c2.006 0 2.455 1.485 2.455 2.472 0 1.381-.828 2.528-2.535 2.528-1.657 0-2.465-1.08-2.465-2.463 0-1.165.578-2.537 2.545-2.537zm-.06 4.342c.708 0 1.517-.48 1.517-1.899 0-1.174-.58-1.795-1.457-1.795-.599 0-1.567.358-1.567 1.833 0 .968.44 1.86 1.507 1.86zM132.01 25.664l-.01-.566h.858l.01.79c.1-.204.429-.888 1.47-.888.41 0 1.662.166 1.662 1.67V30h-.877v-3.115c0-.322-.036-.616-.246-.84a1.136 1.136 0 0 0-.813-.332c-.621 0-1.197.479-1.197 1.465V30h-.858v-4.336z"/></g></svg>