<svg width="120" height="29" xmlns="http://www.w3.org/2000/svg"><g fill="#FFF" fill-rule="nonzero"><path d="M16.162 6.55H8.084v1.805h8.078z"/><path d="M20.209 0h-5.345l1.29 1.809 3.897 1.183c.722.227 1.181.89 1.176 1.604V10.389a1.672 1.672 0 0 1-1.176 1.603l-3.897 1.184-1.29 1.808h5.345c2.23 0 4.037-1.791 4.037-4V4C24.246 1.791 22.44 0 20.21 0zM4.037 0h5.345l-1.29 1.809-3.896 1.183a1.672 1.672 0 0 0-1.177 1.604V10.389a1.672 1.672 0 0 0 1.177 1.603l3.896 1.184 1.29 1.808H4.037c-2.23 0-4.037-1.791-4.037-4V4C0 1.791 1.807 0 4.037 0zM89.692 10.463c0 1.294-1.074 2.347-2.394 2.347s-2.395-1.053-2.395-2.347V4.734c0-1.294 1.074-2.347 2.395-2.347 1.32 0 2.394 1.053 2.394 2.347v.07h1.832v-.07c0-2.283-1.895-4.141-4.226-4.141-2.33 0-4.226 1.858-4.226 4.141v5.723c0 2.284 1.896 4.142 4.226 4.142 2.327 0 4.222-1.856 4.226-4.136v-.076h-1.832v.076zM99.213 4.295c-1.942 0-3.537 1.492-3.632 3.396v3.51c.095 1.905 1.69 3.398 3.632 3.398 1.942 0 3.538-1.494 3.632-3.402v-3.51c-.094-1.902-1.69-3.392-3.632-3.392zm1.796 6.702a1.792 1.792 0 0 1-1.796 1.782 1.793 1.793 0 0 1-1.796-1.781V7.897c0-.983.806-1.783 1.796-1.783s1.796.8 1.796 1.783v3.1zM94.263.594h-1.827V14.37h1.827zM43.922 4.295h-1.827V14.37h1.827zM40.272.594h-1.827V14.37h1.827zM33.838.594H31.59l-3.692 13.76-.005.017h1.824l.98-3.655 4.036.012.975 3.633.003.01h1.823L33.84.604l-.002-.01zm.41 8.329h-3.07l1.536-5.721 1.535 5.72zM109.594 11.186c0 .985-.808 1.785-1.8 1.785-.993 0-1.802-.8-1.802-1.785V4.295h-1.827v7.187c0 1.718 1.41 3.116 3.145 3.116.319 0 .633-.047.936-.14.177-.053.346-.122.503-.208.28-.144.537-.326.759-.542l.078-.076v.74h1.843V4.294h-1.835v6.891zM43.922.594h-1.827v1.81h1.827zM49.85 4.286c-.826 0-1.607.316-2.199.89l-.078.077V.595h-1.827v13.778h1.827v-.74l.078.076c.592.574 1.373.89 2.2.89 1.733 0 3.144-1.398 3.144-3.117V7.403c0-1.719-1.41-3.117-3.145-3.117zm1.341 3.448v3.417a1.8 1.8 0 0 1-1.805 1.79 1.8 1.8 0 0 1-1.806-1.79V7.734a1.8 1.8 0 0 1 1.806-1.79 1.8 1.8 0 0 1 1.805 1.79zM66.862 4.285a3.14 3.14 0 0 0-2.199.89l-.078.076V.594h-1.827V14.37h1.827v-.74l.078.077a3.14 3.14 0 0 0 2.2.89c1.733 0 3.144-1.398 3.144-3.117V7.4c0-1.718-1.41-3.116-3.145-3.116zm1.341 3.448v3.417a1.8 1.8 0 0 1-1.805 1.79 1.8 1.8 0 0 1-1.806-1.79V7.733a1.8 1.8 0 0 1 1.806-1.79 1.8 1.8 0 0 1 1.805 1.79zM118.172.594V5.25l-.078-.076a3.142 3.142 0 0 0-2.2-.89c-1.733 0-3.144 1.398-3.144 3.117v4.08l-.001.011c.001 1.712 1.412 3.105 3.146 3.105.826 0 1.606-.316 2.199-.89l.078-.076v.74H120V.593h-1.828zm-.007 7.139v3.417a1.8 1.8 0 0 1-1.806 1.79 1.8 1.8 0 0 1-1.806-1.79V7.733a1.8 1.8 0 0 1 1.806-1.79 1.8 1.8 0 0 1 1.806 1.79zM61.448 7.704a3.478 3.478 0 0 0-.037-.352l-.01-.05a3.636 3.636 0 0 0-.625-1.509 3.576 3.576 0 0 0-2.923-1.507c-.853 0-1.68.295-2.332.83a3.615 3.615 0 0 0-1.252 2.115l-.003.017h1.789l.002-.011a1.797 1.797 0 0 1 1.762-1.44 1.798 1.798 0 0 1 1.8 1.714l.002.846h-2.593c-1.734 0-3.144 1.398-3.144 3.116 0 1.447 1.002 2.663 2.353 3.012.015.005.03.008.046.012a3.206 3.206 0 0 0 .393.072l.046.005c.149.016.308.025.474.025.435 0 .825-.06 1.098-.157.463-.146.89-.397 1.248-.744l.078-.075v.74h1.828V7.703zm-4.08 2.027h2.227v1.273a2.028 2.028 0 0 1-1.657 1.978 1.865 1.865 0 0 1-.406.047c-.319 0-.63-.087-.924-.258a1.594 1.594 0 0 1-.517-.426l-.019-.024a1.587 1.587 0 0 1-.336-.973c0-.892.732-1.617 1.632-1.617zM78.482 7.713a3.538 3.538 0 0 0-.036-.352l-.01-.05a3.629 3.629 0 0 0-.626-1.509 3.575 3.575 0 0 0-2.923-1.507c-.852 0-1.68.295-2.331.83a3.615 3.615 0 0 0-1.252 2.115l-.004.017h1.79l.001-.011a1.797 1.797 0 0 1 1.763-1.44 1.798 1.798 0 0 1 1.8 1.714l.002.846h-2.593c-1.734 0-3.144 1.398-3.144 3.116 0 1.447 1.001 2.663 2.352 3.013l.047.012a3.19 3.19 0 0 0 .393.07c.015.002.03.005.046.006.149.017.308.026.474.026.434 0 .825-.061 1.097-.158.464-.146.89-.397 1.249-.743l.078-.076v.74h1.827V7.713zM74.403 9.74h2.227v1.273a2.029 2.029 0 0 1-1.657 1.978 1.865 1.865 0 0 1-.407.047c-.318 0-.629-.087-.924-.257a1.586 1.586 0 0 1-.516-.427l-.019-.024a1.587 1.587 0 0 1-.336-.973c0-.892.732-1.617 1.632-1.617zM1.898 24.834c.017.418.068 1.196 1.469 1.196 1.266 0 1.426-.778 1.426-1.08 0-.677-.548-.81-1.4-1.02-.93-.226-1.343-.326-1.655-.535a1.36 1.36 0 0 1-.633-1.188c0-1.23 1.173-1.765 2.32-1.765.406 0 1.225.067 1.714.594.338.368.355.778.372 1.029h-.878c-.042-.753-.684-.92-1.283-.92-.844 0-1.35.376-1.35.978 0 .536.354.72 1.097.895 1.451.368 1.612.402 1.966.636.566.368.608.954.608 1.205 0 1.07-.844 1.882-2.406 1.882-.464 0-1.409-.075-1.89-.686-.346-.443-.355-.929-.355-1.221h.878zM10.589 22.19c-.034-.209-.143-1.046-1.317-1.046-1.468 0-1.73 1.49-1.73 2.494 0 1.137.33 2.367 1.722 2.367.371 0 .726-.092.987-.36.22-.234.27-.493.296-.636h.928c-.127 1.188-1.232 1.682-2.279 1.682-2.143 0-2.557-1.874-2.557-3.045 0-1.272.498-3.17 2.667-3.17.86 0 2.076.342 2.186 1.714h-.903zM16.216 22.19c-.034-.209-.144-1.046-1.317-1.046-1.468 0-1.73 1.49-1.73 2.494 0 1.137.33 2.367 1.722 2.367.371 0 .726-.092.987-.36.22-.234.27-.493.296-.636h.928c-.127 1.188-1.232 1.682-2.279 1.682-2.144 0-2.557-1.874-2.557-3.045 0-1.272.498-3.17 2.667-3.17.86 0 2.076.342 2.186 1.714h-.903zM21.843 22.19c-.034-.209-.143-1.046-1.317-1.046-1.468 0-1.73 1.49-1.73 2.494 0 1.137.33 2.367 1.722 2.367.371 0 .726-.092.988-.36.219-.234.27-.493.295-.636h.928c-.126 1.188-1.232 1.682-2.279 1.682-2.143 0-2.557-1.874-2.557-3.045 0-1.272.498-3.17 2.667-3.17.86 0 2.076.342 2.186 1.714h-.903zM26.684 21.211c.633-.677 1.468-.81 2.034-.81 1.688 0 2.751 1.07 2.751 3.12 0 1.605-.65 3.22-2.819 3.22-2.076 0-2.751-1.464-2.751-3.12 0-.686.118-1.698.785-2.41zm.641 4.267c.346.426.87.552 1.35.552.499 0 .997-.134 1.351-.552.498-.602.549-1.556.549-1.966 0-1.372-.456-2.41-1.849-2.41-1.544 0-1.94 1.23-1.94 2.469 0 .66.117 1.388.54 1.907zM32.682 23.085c0-.184-.009-.284-.025-.686h.802l.016.695c.397-.661 1.098-.762 1.444-.762.911 0 1.78.62 1.78 2.175 0 1.565-.92 2.25-1.932 2.25-.616 0-1.072-.259-1.3-.627v2.083h-.785v-5.128zm1.95 3.095c.202 0 .624-.041.894-.41.304-.41.346-1.012.346-1.313 0-.753-.228-1.539-1.164-1.539-1.266 0-1.266 1.33-1.266 1.706 0 .511.076 1.557 1.19 1.557zM38.343 24.641c-.017.87.346 1.514 1.215 1.514.515 0 .929-.267.996-.87h.794c-.026.21-.06.552-.363.879-.186.209-.608.56-1.46.56-1.334 0-1.967-.82-1.967-2.15 0-.828.169-1.514.836-1.974.405-.284.911-.31 1.156-.31 1.899 0 1.857 1.665 1.84 2.351h-3.047zm2.237-.552c.008-.401-.068-1.238-1.047-1.238-.515 0-1.14.31-1.156 1.238h2.203zM42.595 23.253a9.45 9.45 0 0 0-.043-.854h.802l.017.812c.152-.586.659-.778 1.013-.828.236-.034.413-.026.549-.017v.77a.68.68 0 0 0-.152-.034c-.06-.008-.135-.008-.228-.008-.937 0-1.156.552-1.156 1.271V26.6h-.802v-3.346zM48.417 26.599a2.245 2.245 0 0 1-.076-.627c-.38.694-.954.76-1.308.76-.97 0-1.494-.543-1.494-1.237 0-.335.118-.87.743-1.23.455-.251 1.13-.276 1.468-.276.203 0 .33.008.574.025 0-.519 0-.745-.152-.929-.16-.209-.506-.276-.734-.276-.802 0-.844.544-.852.711h-.794c.025-.217.05-.51.296-.794.32-.352.92-.452 1.367-.452.616 0 1.274.192 1.502.619.135.251.144.452.144.644l-.034 2.008c0 .067.008.627.067 1.054h-.717zm-.549-2.066c-.32 0-1.527 0-1.527.853 0 .267.168.728.877.728.406 0 .71-.16.904-.452.177-.285.185-.519.202-1.104a3.514 3.514 0 0 0-.456-.025zM49.875 22.383h.751v-.879l.785-.25v1.129h.945v.577h-.945v2.518c0 .209 0 .56.566.56.16 0 .312-.025.38-.041v.61c-.144.025-.372.05-.659.05-.726 0-1.072-.209-1.072-.895V22.96h-.751v-.577zM53.258 20.576h1.2v.861h-1.2v-.861zm.106 1.823h.998v4.2h-.998v-4.2zM55.705 22.885l-.008-.486h.793l.008.678c.093-.176.397-.761 1.36-.761.379 0 1.535.142 1.535 1.43V26.6h-.81V23.93c0-.276-.034-.527-.228-.72a1.094 1.094 0 0 0-.751-.284c-.574 0-1.106.41-1.106 1.255V26.6h-.793v-3.714zM61.594 26.925c.034.469.236.82.987.82 1.106 0 1.123-.795 1.123-1.933-.338.695-1.14.712-1.393.712-.388 0-.945-.084-1.3-.52-.363-.426-.48-.986-.48-1.547 0-1.422.843-2.116 1.881-2.116.853 0 1.165.418 1.334.636l.008-.578h.768l-.016.762-.009 2.626c0 1.013-.034 1.423-.202 1.74-.355.67-1.182.753-1.764.753-1.697 0-1.747-.786-1.781-1.355h.844zm1.848-1.405c.169-.218.287-.444.287-1.205 0-.527-.118-.828-.329-1.046-.211-.225-.549-.368-.912-.368-1.004 0-1.139 1.004-1.139 1.54 0 .644.194 1.497 1.165 1.497.464 0 .734-.168.928-.418zM68.942 24.834c.016.418.067 1.196 1.468 1.196 1.266 0 1.427-.778 1.427-1.08 0-.677-.549-.81-1.401-1.02-.929-.226-1.342-.326-1.655-.535a1.36 1.36 0 0 1-.633-1.188c0-1.23 1.174-1.765 2.321-1.765.405 0 1.224.067 1.714.594.337.368.354.778.371 1.029h-.878c-.042-.753-.683-.92-1.283-.92-.844 0-1.35.376-1.35.978 0 .536.355.72 1.097.895 1.452.368 1.612.402 1.967.636.565.368.607.954.607 1.205 0 1.07-.844 1.882-2.405 1.882-.464 0-1.41-.075-1.89-.686-.347-.443-.355-.929-.355-1.221h.878zM76.375 26.599a2.245 2.245 0 0 1-.076-.627c-.38.694-.954.76-1.308.76-.97 0-1.494-.543-1.494-1.237 0-.335.118-.87.743-1.23.455-.251 1.13-.276 1.468-.276.203 0 .33.008.574.025 0-.519 0-.745-.152-.929-.16-.209-.506-.276-.734-.276-.802 0-.844.544-.853.711h-.793c.025-.217.05-.51.296-.794.32-.352.92-.452 1.367-.452.616 0 1.274.192 1.502.619.135.251.143.452.143.644l-.033 2.008c0 .067.008.627.067 1.054h-.717zm-.549-2.066c-.32 0-1.528 0-1.528.853 0 .267.17.728.878.728.406 0 .71-.16.904-.452.177-.285.185-.519.202-1.104a3.514 3.514 0 0 0-.456-.025zM79.208 22.4V25.1c0 .41.094.929.904.929.397 0 .768-.134.996-.468.177-.251.177-.578.177-.787V22.4h.819v3.413c0 .084.017.553.025.787h-.827l-.017-.72c-.152.293-.44.762-1.35.762-1.047 0-1.537-.594-1.537-1.422v-2.82h.81zM86.574 20.567h.794v5.363c0 .092.016.451.034.669h-.793l-.017-.67c-.068.118-.16.293-.38.444-.346.234-.76.31-1.047.31-.566 0-1.823-.293-1.823-2.134 0-1.597.92-2.292 1.916-2.292.911 0 1.215.535 1.316.711v-2.4zm-.295 2.702c-.169-.217-.481-.426-.928-.426-1.165 0-1.165 1.397-1.165 1.681 0 .745.194 1.606 1.165 1.606 1.248 0 1.248-1.363 1.248-1.69 0-.61-.142-.945-.32-1.17zM88.716 20.576h1.2v.861h-1.2v-.861zm.107 1.823h.998v4.2h-.998v-4.2zM93.466 20.559h2.177c.313 0 .954 0 1.402.284.455.285.675.745.675 1.23 0 .427-.16.803-.43 1.07-.263.26-.533.344-.718.394.582.15.844.41.928 1.163.084.71.144 1.23.38 1.899h-.903c-.135-.402-.22-1.138-.278-1.598-.102-.878-.313-1.13-1.334-1.13h-1.063V26.6h-.836v-6.04zm.819 2.602h1.333c.093 0 .574 0 .802-.134.118-.067.413-.285.413-.787 0-.978-.877-.978-1.215-.978h-1.333v1.899zM99.423 24.641c-.018.87.345 1.514 1.215 1.514.514 0 .928-.267.996-.87h.793c-.025.21-.06.552-.363.879-.186.209-.607.56-1.46.56-1.333 0-1.967-.82-1.967-2.15 0-.828.169-1.514.836-1.974.405-.284.911-.31 1.157-.31 1.898 0 1.856 1.665 1.84 2.351h-3.047zm2.236-.552c.009-.401-.068-1.238-1.046-1.238-.515 0-1.14.31-1.157 1.238h2.203zM104.392 26.925c.033.469.236.82.987.82 1.105 0 1.123-.795 1.123-1.933-.338.695-1.14.712-1.393.712-.389 0-.945-.084-1.3-.52-.363-.426-.481-.986-.481-1.547 0-1.422.844-2.116 1.882-2.116.852 0 1.165.418 1.334.636l.008-.578h.769l-.018.762-.008 2.626c0 1.013-.034 1.423-.203 1.74-.354.67-1.182.753-1.764.753-1.696 0-1.747-.786-1.78-1.355h.844zm1.848-1.405c.169-.218.286-.444.286-1.205 0-.527-.117-.828-.328-1.046-.211-.225-.55-.368-.912-.368-1.004 0-1.139 1.004-1.139 1.54 0 .644.194 1.497 1.164 1.497.465 0 .735-.168.929-.418zM108.71 20.576h1.2v.861h-1.2v-.861zm.107 1.823h.998v4.2h-.998v-4.2zM112.972 22.29c1.696 0 2.076 1.322 2.076 2.2 0 1.23-.7 2.251-2.144 2.251-1.401 0-2.084-.962-2.084-2.192 0-1.037.489-2.258 2.152-2.258zm-.051 3.865c.599 0 1.283-.426 1.283-1.69 0-1.045-.49-1.597-1.232-1.597-.507 0-1.325.318-1.325 1.631 0 .862.371 1.656 1.274 1.656zM116.311 22.885l-.008-.486h.793l.009.678c.093-.176.396-.761 1.359-.761.38 0 1.536.142 1.536 1.43V26.6h-.81V23.93c0-.276-.034-.527-.228-.72a1.094 1.094 0 0 0-.751-.284c-.574 0-1.106.41-1.106 1.255V26.6h-.794v-3.714z"/></g></svg>