<svg width="167" height="143" xmlns="http://www.w3.org/2000/svg" xmlns:xlink="http://www.w3.org/1999/xlink"><defs><path id="a" d="M0 0h167v143H0z"/></defs><g fill="none" fill-rule="evenodd"><mask id="b" fill="#fff"><use xlink:href="#a"/></mask><g mask="url(#b)"><path d="M129.738 32.954c-9.474-30.628-40.695-35.47-60.986-22.168C36.605 31.863 70.9 37.093 7.867 86.96c-15.563 12.313-10.605 66.667 38.358 54.192 26.35-6.712 34.361-7.655 46.214-8.758 29.875-2.786 81.45 4.98 73.796-33.8-4.563-23.103-31.284-41.566-36.497-65.64z" fill="#FE6900" opacity=".252"/><path fill="#FFF" d="M38.266 67.396h92.28v36.988L84.372 128.88l-46.106-24.495z"/><path d="M84.196 129.21a.356.356 0 0 0 .35 0l46.175-24.495a.374.374 0 0 0 .197-.33V67.395a.375.375 0 0 0-.374-.376H38.267a.375.375 0 0 0-.374.376v36.988a.37.37 0 0 0 .2.331l46.103 24.495zm.176-.755 45.8-24.296V67.772H38.64v36.387l45.732 24.296z" fill="#262626"/><path fill="#FFF" d="m105.12 24.92 46.174 24.494-20.749 10.044-46.174-24.494z"/><path d="M151.456 49.753a.377.377 0 0 0 .012-.67l-46.175-24.495a.366.366 0 0 0-.335-.009L84.209 34.626a.376.376 0 0 0-.012.67l46.175 24.495a.389.389 0 0 0 .335.006l20.749-10.044zm-20.904 9.285 19.914-9.639-45.355-24.059-19.91 9.639 45.351 24.059z" fill="#262626"/><path fill="#FFF" d="M17.517 49.414 63.69 24.919 84.44 34.964 38.266 59.458z"/><path d="M38.267 59.833c.06 0 .12-.012.173-.042l46.175-24.494a.376.376 0 0 0-.012-.67L63.854 24.578a.367.367 0 0 0-.335.01L17.344 49.082a.377.377 0 0 0 .012.67l20.746 10.044c.051.024.108.036.165.036zm-.01-.795 45.352-24.06L63.7 25.34 18.346 49.4l19.91 9.638z" fill="#262626"/><path fill="#FFF" d="M60.699 97.003 14.524 72.51l23.742-13.05L84.44 83.953z"/><path d="M60.523 97.337a.392.392 0 0 0 .356-.003l23.741-13.05a.374.374 0 0 0-.006-.661L38.44 59.128a.368.368 0 0 0-.354 0l-23.74 13.053a.377.377 0 0 0 .002.661l46.175 24.495zm.173-.76L83.65 83.958 38.269 59.885 15.314 72.502l45.382 24.074z" fill="#262626"/><g><path fill="#FFF" d="m154.286 72.509-46.174 24.494-23.741-13.05 46.174-24.494z"/><path d="m108.286 97.337 46.175-24.495a.383.383 0 0 0 .2-.33.377.377 0 0 0-.194-.33l-23.741-13.054a.374.374 0 0 0-.356 0L84.195 83.623a.372.372 0 0 0-.197.328c0 .138.074.264.194.333l23.741 13.05a.37.37 0 0 0 .18.045c.06 0 .12-.015.173-.042zm-.17-.76 45.381-24.075-22.954-12.617L85.16 83.96l22.955 12.617z" fill="#262626"/></g><path fill="#262626" d="M130.546 59.46 84.372 83.953 38.266 59.459 84.44 34.965z"/><path fill="#262626" d="M83.997 128.88h.748V83.952h-.748z"/><g><path d="M58.5 57.236a.302.302 0 0 0 .242-.127c.057-.08 5.737-8.307-.604-15.827a11.945 11.945 0 0 0-9.429-4.261 16.434 16.434 0 0 0-1.786-3.55c-2.275-3.49-6.398-5.9-11.314-6.618-4.187-.61-8.23.132-10.3 1.894a.301.301 0 0 0 .39.46c1.944-1.657 5.798-2.345 9.823-1.759 4.746.692 8.72 3.006 10.9 6.35a15.939 15.939 0 0 1 1.665 3.253 8.802 8.802 0 0 0-3.768 1.088c-1.828 1.088-2.522 2.774-1.858 4.514a3.012 3.012 0 0 0 2.597 2.029 3.783 3.783 0 0 0 3.495-1.93c.811-1.364.916-3.144.342-5.145h.08c3.358 0 6.545 1.485 8.708 4.063 6.036 7.16.628 15.013.572 15.09a.303.303 0 0 0 .245.476zM44.625 38.655c-1.577.94-2.163 2.317-1.604 3.78a2.436 2.436 0 0 0 2.092 1.648 3.192 3.192 0 0 0 2.93-1.638c.745-1.253.81-2.921.239-4.815a8.312 8.312 0 0 0-3.657 1.025zM20.736 33.98a2.049 2.049 0 0 0 1.107-2.63 2.032 2.032 0 0 0-2.585-1.185 2.05 2.05 0 0 0-1.248 2.567 2.037 2.037 0 0 0 2.726 1.247zm-1.341-3.215a1.442 1.442 0 0 0-.779 1.851 1.433 1.433 0 0 0 2.697-.977 1.431 1.431 0 0 0-1.918-.874zM20.734 29.268a2.042 2.042 0 0 0 1.247-1.893 2.04 2.04 0 0 0-1.265-1.881 2.03 2.03 0 0 0-2.215.45 2.052 2.052 0 0 0-.43 2.23 2.036 2.036 0 0 0 2.46 1.17 2.35 2.35 0 0 0 .203-.076zm-2.113-1.325c.299.715 1.11 1.067 1.834.79a1.444 1.444 0 0 0 .853-1.812 1.435 1.435 0 0 0-1.772-.92 1.445 1.445 0 0 0-.916 1.942z" fill="#292A2E"/><path d="M19.947 27.898c-1.469 0-2.66.8-2.66 1.785 0 .986 1.191 1.786 2.66 1.786 1.47 0 2.66-.8 2.66-1.786s-1.19-1.785-2.66-1.785z" fill="#FFF"/><path d="M21.997 31.194a1.71 1.71 0 0 0-.003-3.027 3.741 3.741 0 0 0-2.05-.57c-1.657.003-2.956.92-2.956 2.089s1.302 2.082 2.963 2.082c.398 0 .793-.057 1.176-.168.308-.093.601-.228.87-.406zm-4.41-1.51c0 .803 1.083 1.483 2.364 1.483.604.012 1.2-.154 1.714-.475a1.115 1.115 0 0 0 0-2.023 3.126 3.126 0 0 0-1.717-.472 3.47 3.47 0 0 0-.994.144c-.802.24-1.367.76-1.367 1.344z" fill="#292A2E"/><path fill="#292A2E" d="m19.618 31.454.06-3.547.859.036.063 3.472zM16.419 29.886a.277.277 0 0 0 0 .553.28.28 0 0 0 .275-.276.277.277 0 0 0-.275-.277zM16.633 28.41a.277.277 0 0 0 0 .553.28.28 0 0 0 .275-.276.277.277 0 0 0-.275-.277z"/></g><g><path d="M122.937 11.109c-1.496.21-2.974.55-4.414 1.015-10.23 3.213-13.298 10.55-14.073 16.14a29.97 29.97 0 0 0 .781 11.427c.04.126.153.21.285.21v.003a.304.304 0 0 0 .242-.12.306.306 0 0 0 .045-.268 29.286 29.286 0 0 1-.76-11.168c1.092-7.88 5.685-13.146 13.66-15.65a25.534 25.534 0 0 1 4.153-.958 10.197 10.197 0 0 0 .183 3.246c.706 3.146 2.792 5.274 5.311 5.425a3.62 3.62 0 0 0 3.543-2.077 4.676 4.676 0 0 0-.694-5.092c-.97-1.142-3.13-2.653-7.643-2.206.5-2.819 2.254-5.854 6.087-7.97 9.39-5.182 15.68-.595 15.742-.547a.3.3 0 0 0 .42-.06.302.302 0 0 0-.06-.421c-.066-.051-6.646-4.875-16.392.502-4.1 2.263-5.934 5.542-6.416 8.569zm.687 3.743c.646 2.879 2.514 4.826 4.76 4.959a3.046 3.046 0 0 0 2.972-1.743c.7-1.47.458-3.213-.613-4.434-1.398-1.65-3.953-2.317-7.277-1.968a9.58 9.58 0 0 0 .158 3.186zM154.379 4.277c.407-.508.565-1.17.428-1.804a2.138 2.138 0 0 0-2.391-1.67 2.144 2.144 0 0 0-1.828 2.274 2.136 2.136 0 0 0 2.127 1.996c.647 0 1.257-.292 1.664-.796zm-3.112-1.864c-.215.62-.02 1.305.485 1.717.509.411 1.22.456 1.774.114a1.55 1.55 0 0 0 .698-1.644 1.539 1.539 0 0 0-2.956-.186zM152.27 9.93a2.152 2.152 0 0 0 1.658-2.45 2.145 2.145 0 0 0-2.346-1.793 2.153 2.153 0 0 0-1.909 2.257 2.145 2.145 0 0 0 2.598 1.986zm-.777-3.606a1.534 1.534 0 0 0-1.182 1.749 1.526 1.526 0 0 0 1.673 1.277 1.535 1.535 0 0 0 1.364-1.608 1.535 1.535 0 0 0-1.855-1.418z" fill="#292A2E"/><path d="M149.485 4.925c-.188 1.026.9 2.09 2.43 2.373 1.531.284 2.923-.32 3.111-1.346.189-1.026-.897-2.089-2.427-2.372-1.53-.284-2.925.32-3.114 1.345z" fill="#FFF"/><path d="M154.092 7.393c.62-.22 1.08-.742 1.23-1.386a1.941 1.941 0 0 0-.655-1.734 4.162 4.162 0 0 0-4.247-.787c-.619.22-1.083.742-1.23 1.385-.09.653.156 1.308.656 1.735.562.52 1.263.862 2.014.988.266.048.538.075.808.075.487.006.972-.09 1.424-.276zm.156-2.69a3.311 3.311 0 0 0-1.705-.827 3.892 3.892 0 0 0-.7-.066 2.963 2.963 0 0 0-1.186.229 1.343 1.343 0 0 0-.876.94c-.051.457.131.905.484 1.196a3.57 3.57 0 0 0 3.591.665c.431-.145.76-.5.877-.941a1.37 1.37 0 0 0-.485-1.196z" fill="#292A2E"/><path fill="#292A2E" d="m152.943 3.658-.745 3.682-.89-.201.602-3.628zM155.517 6.828a.291.291 0 0 0 0 .583.291.291 0 0 0 0-.583zM156.024 5.333a.291.291 0 0 0 0 .583.291.291 0 0 0 0-.583z"/></g></g></g></svg>