<svg width="130" height="137" xmlns="http://www.w3.org/2000/svg" xmlns:xlink="http://www.w3.org/1999/xlink"><defs><linearGradient x1="49.968%" y1="-2.316%" x2="49.968%" y2="101.076%" id="c"><stop stop-color="#FDFEFF" offset="0%"/><stop stop-color="#ECF0F5" offset="99.64%"/></linearGradient><filter x="-45.8%" y="-58.8%" width="191.6%" height="264.8%" filterUnits="objectBoundingBox" id="a"><feOffset dy="11" in="SourceAlpha" result="shadowOffsetOuter1"/><feGaussianBlur stdDeviation="11" in="shadowOffsetOuter1" result="shadowBlurOuter1"/><feColorMatrix values="0 0 0 0 0.396078431 0 0 0 0 0.478431373 0 0 0 0 0.576470588 0 0 0 0.27 0" in="shadowBlurOuter1"/></filter><path d="M107.915 57.797v36.83c0 5.09-4.071 9.161-9.254 9.161H33.145c-5.09 0-9.254-4.071-9.254-9.16V57.611c0-.185 0-.37.093-.555h21.098c3.147 0 5.738 2.498 5.738 5.737 0 1.573.647 3.054 1.665 4.072 1.11 1.11 2.406 1.666 4.072 1.666h18.785c3.146 0 5.737-2.499 5.737-5.738 0-1.573.648-3.053 1.666-4.071 1.11-1.11 2.406-1.666 3.98-1.666h21.005c.185.185.185.463.185.74z" id="b"/></defs><g fill="none" fill-rule="evenodd"><path d="M65.81 119.52c30.353 0 54.968-24.43 54.968-54.597 0-30.168-24.615-54.597-54.967-54.597-30.353 0-54.967 24.43-54.967 54.597S35.458 119.52 65.81 119.52z" fill="#EAEEF9" fill-rule="nonzero"/><path d="M107.915 57.797v33.406c0 6.94-5.645 12.585-12.677 12.585h-58.67c-6.94 0-12.584-5.552-12.677-12.492V57.612c0-.185 0-.37.093-.555.092-.278.185-.463.277-.74l15.732-30.075c.555-1.203 1.758-1.85 3.054-1.85h45.62c1.296 0 2.406.647 3.054 1.85l15.731 30.075c.093.185.186.462.278.74.185.185.185.463.185.74z" fill="#CFD9EA" fill-rule="nonzero"/><g fill-rule="nonzero"><use fill="#000" filter="url(#a)" xlink:href="#b"/><use fill="url(#c)" xlink:href="#b"/></g><path d="M119.373 38.827a3.797 3.797 0 0 0 3.794-3.794 3.797 3.797 0 0 0-3.794-3.794 3.796 3.796 0 0 0-3.794 3.794 3.796 3.796 0 0 0 3.794 3.794zM115.58 26.52a2.59 2.59 0 0 0 2.59-2.591 2.59 2.59 0 0 0-2.59-2.591 2.589 2.589 0 0 0-2.592 2.59 2.589 2.589 0 0 0 2.591 2.592zM10.642 35.033a2.59 2.59 0 0 0 2.59-2.591 2.59 2.59 0 0 0-2.59-2.591 2.589 2.589 0 0 0-2.591 2.591 2.589 2.589 0 0 0 2.59 2.591zM4.812 92.036a4.813 4.813 0 0 0 0-9.624 4.813 4.813 0 0 0 0 9.624z" fill="#EAEEF9" fill-rule="nonzero"/><path d="M89.056 13.259c1.208 13.187 1.811 16.203-.923 28.14-.89 2.656-1.778 5.562-3.684 7.589-2.667 3.155-7.495 4.543-11.432 3.535-4.066-1.01-7.368-4.553-8.13-8.847-.636-2.656.254-5.811 2.54-7.458 2.414-1.518 5.843-1.139 7.876.758 2.287 1.897 3.176 4.803 3.048 7.588-.126 2.777-1.142 5.562-2.54 7.959-3.159 5.903-4.46 5.885-10.925 15.583" stroke="#ABB5CC" stroke-width="2" stroke-dasharray="4"/><path d="M96.138 8.345c-.483 1.768-2.414 2.406-4.346 1.287-2.092-.963-3.54-1.768-3.219-3.369.483-1.6 2.414-1.758 4.668-1.915 2.736-.324 3.219 2.24 2.897 3.997zM80.526 9.946c.805 1.444 3.058 2.406 4.668.963 1.77-1.601 3.218-2.721 2.414-4.322-.805-1.443-2.092-.962-4.829-.638-2.253.48-3.22 2.396-2.253 3.997z" fill="#DAE2EB" fill-rule="nonzero"/><path d="M87.608 4.024c1.126-.158 2.253.481 2.575 1.443.161.315.322.796.322 1.12.321 2.24-.483 4.164-1.771 4.322-1.448.323-2.896-1.277-3.057-3.36V6.106c.16-1.12.804-1.925 1.93-2.082.162 0 0 0 0 0zM55.345 81.82a2.124 2.124 0 1 0-.002-4.247 2.124 2.124 0 0 0 .002 4.247zM76.46 81.82a2.124 2.124 0 1 0-.002-4.247 2.124 2.124 0 0 0 .003 4.247zM69.346 95.765h-6.657a1.91 1.91 0 0 1-1.893-1.897 1.91 1.91 0 0 1 1.893-1.897h6.6a1.91 1.91 0 0 1 1.893 1.897c.057 1.037-.804 1.897-1.836 1.897z" fill="#989FB0" fill-rule="nonzero"/></g></svg>