<svg width="16" height="16" xmlns="http://www.w3.org/2000/svg"><path d="M0 9.6h16V11c0 .552-.448 1-1 1h-4.988c.085 1.382.599 2.029.956 2.4h.632a.4.4 0 1 1 0 .8H4.4a.4.4 0 0 1 0-.8h.633c.357-.371.871-1.018.955-2.4H1c-.552 0-1-.448-1-1V9.6zM16 1v7.8H0V1c0-.552.448-1 1-1h14c.552 0 1 .448 1 1zM2.4 4a.8.8 0 0 1 .8-.8h1.2a.4.4 0 1 0 0-.8H3.2a1.6 1.6 0 1 0 0 3.2.8.8 0 0 1 0 1.6H2A.4.4 0 0 0 2 8h1.2a1.6 1.6 0 1 0 0-3.2.8.8 0 0 1-.8-.8zm7.856-1.507a.4.4 0 0 0-.563.05L8 4.576 6.307 2.544a.4.4 0 1 0-.614.512L7.479 5.2 5.693 7.344a.4.4 0 0 0 .614.512l4-4.8a.4.4 0 0 0-.05-.563zM12 4a.8.8 0 0 1 .8-.8H14a.4.4 0 1 0 0-.8h-1.2a1.6 1.6 0 1 0 0 3.2.8.8 0 0 1 0 1.6h-1.2a.4.4 0 0 0 0 .8h1.2a1.6 1.6 0 1 0 0-3.2.8.8 0 0 1-.8-.8z" fill="#FE6900" fill-rule="nonzero"/></svg>