<svg width="16" height="16" xmlns="http://www.w3.org/2000/svg"><g fill="#FE6900" fill-rule="nonzero"><path d="M12.285 8.806a.576.576 0 0 0-.691.043c-.954.814-2.144 1.34-3.494 1.34-1.37 0-2.574-.54-3.612-1.376a.575.575 0 0 0-.653-.045C1.677 10.062.185 11.741.001 14.57a.573.573 0 0 0 .571.609h14.856c.33 0 .592-.28.57-.609-.184-2.8-1.653-4.396-3.713-5.763z"/><path d="M7.998 0c-2.396 0-4.31 2.005-4.31 4.394C3.688 6.877 5.7 8.788 8 8.788c2.395 0 4.314-2.006 4.314-4.394C12.314 2.006 10.397 0 7.998 0z"/></g></svg>